<svg xmlns="http://www.w3.org/2000/svg" width="64" height="64" viewBox="0 0 64 64">
    <defs>
    <linearGradient id="bgGrad" x1="0" y1="0" x2="1" y2="1">
      <stop offset="0%" stop-color="#fdf6f2"/>
      <stop offset="55%" stop-color="#f7dde7"/>
      <stop offset="100%" stop-color="#e9def2"/>
    </linearGradient>
    
    <radialGradient id="petalGrad" cx="50%" cy="36%" r="70%">
      <stop offset="0%" stop-color="#fdeef4"/>
      <stop offset="100%" stop-color="#d488a8"/>
    </radialGradient>
    <radialGradient id="centerGrad" cx="50%" cy="40%" r="62%">
      <stop offset="0%" stop-color="#f7e7c2"/>
      <stop offset="100%" stop-color="#d9b46b"/>
    </radialGradient></defs>
    <rect width="64" height="64" rx="14.08" fill="url(#bgGrad)"/>
    
    <g transform="translate(32 32)">
      <path d="M0 -1.28C 9.68 -1.98, 8.60 -14.28, 2.96 -18.85C 1.34 -20.24, -1.34 -20.24, -2.96 -18.85C -8.60 -14.28, -9.68 -1.98, 0 -1.28 Z" transform="rotate(0)" fill="url(#petalGrad)" stroke="#c46d92" stroke-width="0.544" stroke-linejoin="round"/><path d="M0 -1.28C 9.68 -1.98, 8.60 -14.28, 2.96 -18.85C 1.34 -20.24, -1.34 -20.24, -2.96 -18.85C -8.60 -14.28, -9.68 -1.98, 0 -1.28 Z" transform="rotate(72)" fill="url(#petalGrad)" stroke="#c46d92" stroke-width="0.544" stroke-linejoin="round"/><path d="M0 -1.28C 9.68 -1.98, 8.60 -14.28, 2.96 -18.85C 1.34 -20.24, -1.34 -20.24, -2.96 -18.85C -8.60 -14.28, -9.68 -1.98, 0 -1.28 Z" transform="rotate(144)" fill="url(#petalGrad)" stroke="#c46d92" stroke-width="0.544" stroke-linejoin="round"/><path d="M0 -1.28C 9.68 -1.98, 8.60 -14.28, 2.96 -18.85C 1.34 -20.24, -1.34 -20.24, -2.96 -18.85C -8.60 -14.28, -9.68 -1.98, 0 -1.28 Z" transform="rotate(216)" fill="url(#petalGrad)" stroke="#c46d92" stroke-width="0.544" stroke-linejoin="round"/><path d="M0 -1.28C 9.68 -1.98, 8.60 -14.28, 2.96 -18.85C 1.34 -20.24, -1.34 -20.24, -2.96 -18.85C -8.60 -14.28, -9.68 -1.98, 0 -1.28 Z" transform="rotate(288)" fill="url(#petalGrad)" stroke="#c46d92" stroke-width="0.544" stroke-linejoin="round"/>
      <circle r="4.48" fill="url(#centerGrad)"/>
      <circle r="1.792" fill="#f7e7c2"/>
    </g>
  </svg>